<svg xmlns="http://www.w3.org/2000/svg" version="1.1" xmlns:xlink="http://www.w3.org/1999/xlink" xmlns:svgjs="http://svgjs.dev/svgjs" width="424" height="424"><svg width="424" height="424" viewBox="0 0 424 424" fill="none" xmlns="http://www.w3.org/2000/svg">
<rect width="424" height="424" fill="#4EE1A0"></rect>
<path d="M48.56 267V155H87.76L107.12 252.6H110L129.36 155H168.56V267H148.08V170.52H145.2L126 267H91.12L71.92 170.52H69.04V267H48.56ZM186.454 267V248.44H201.174V173.56H186.454V155H244.054C250.88 155 256.8 156.173 261.814 158.52C266.934 160.76 270.88 164.013 273.654 168.28C276.534 172.44 277.974 177.453 277.974 183.32V184.92C277.974 190.04 277.014 194.253 275.094 197.56C273.174 200.76 270.88 203.267 268.214 205.08C265.654 206.787 263.2 208.013 260.854 208.76V211.64C263.2 212.28 265.76 213.507 268.534 215.32C271.307 217.027 273.654 219.533 275.574 222.84C277.6 226.147 278.614 230.467 278.614 235.8V237.4C278.614 243.587 277.174 248.92 274.294 253.4C271.414 257.773 267.414 261.133 262.294 263.48C257.28 265.827 251.414 267 244.694 267H186.454ZM222.294 247.8H242.134C246.72 247.8 250.4 246.68 253.174 244.44C256.054 242.2 257.494 239 257.494 234.84V233.24C257.494 229.08 256.107 225.88 253.334 223.64C250.56 221.4 246.827 220.28 242.134 220.28H222.294V247.8ZM222.294 201.08H241.814C246.187 201.08 249.76 199.96 252.534 197.72C255.414 195.48 256.854 192.387 256.854 188.44V186.84C256.854 182.787 255.467 179.693 252.694 177.56C249.92 175.32 246.294 174.2 241.814 174.2H222.294V201.08ZM295.904 267V155H317.024V199.48H319.904L356.224 155H383.264L336.544 210.2L384.864 267H357.024L319.904 221.56H317.024V267H295.904Z" fill="#242424"></path>
</svg><style>@media (prefers-color-scheme: light) { :root { filter: none; } }
@media (prefers-color-scheme: dark) { :root { filter: none; } }
</style></svg>